<svg data-v-0dd9719b="" version="1.0" xmlns="http://www.w3.org/2000/svg" xmlns:xlink="http://www.w3.org/1999/xlink" width="100%" height="100%" viewBox="0 0 340.000000 250.000000" preserveAspectRatio="xMidYMid meet" color-interpolation-filters="sRGB" style="margin: auto;"> <rect data-v-0dd9719b="" x="0" y="0" width="100%" height="100%" fill="#ffffff" fill-opacity="1" class="background"></rect> <rect data-v-0dd9719b="" x="0" y="0" width="100%" height="100%" fill="url(#watermark)" fill-opacity="1" class="watermarklayer"></rect> <g data-v-0dd9719b="" fill="#3a533d" class="icon-text-wrapper icon-svg-group iconsvg" transform="translate(52.80000305175781,94.99939918518066)"><g class="iconsvg-imagesvg" transform="translate(0,0)"><g><rect fill="#3a533d" fill-opacity="0" stroke-width="2" x="0" y="0" width="59.99999999999955" height="60.001200024000035" class="image-rect"></rect> <svg x="0" y="0" width="59.99999999999955" height="60.001200024000035" filtersec="colorsb6590134344" class="image-svg-svg primary" style="overflow: visible;"><svg version="1.1" id="cube" xmlns="http://www.w3.org/2000/svg" xmlns:xlink="http://www.w3.org/1999/xlink" x="0px" y="0px" viewBox="9.789997100830078 7.599999904632568 490.46002197265625 490.47003173828125" enable-background="new 0 0 511 507.62" xml:space="preserve">
<path fill="#3a533d" d="M372.43,83.05L290.7,222.44c-10.87,18.55-4.65,42.4,13.89,53.27l131.08,76.86
	c18.54,10.87,42.41,4.53,49.78-15.66c9.58-26.22,14.8-54.53,14.8-84.07c0-70.68-29.9-134.37-77.74-179.13
	C406.82,59.02,383.3,64.5,372.43,83.05z"></path>
<path fill="#3a533d" d="M273.91,212.6l81.96-139.78c10.87-18.55,4.58-42.49-15.57-49.97C313.74,12.99,285.01,7.6,255.02,7.6
	c-74.3,0-140.88,33.05-185.84,85.24c-14.03,16.29-7.94,40.19,10.6,51.06l140.86,82.59C239.19,237.36,263.04,231.14,273.91,212.6z"></path>
<path fill="#b4dd7b" d="M147.17,428.76l77.51-132.21c10.87-18.55,4.65-42.4-13.89-53.27L70.21,160.86
	c-18.54-10.88-41.86-4.23-48.49,16.22c-7.74,23.86-11.93,49.32-11.93,75.76c0,74.76,33.46,141.7,86.21,186.68
	C112.36,453.47,136.3,447.3,147.17,428.76z"></path>
<path fill="#b4dd7b" d="M241.48,306.39l-77.29,131.83c-10.87,18.55-4.19,41.78,16.3,48.31c23.51,7.49,48.55,11.54,74.54,11.54
	c71.14,0,135.2-30.29,179.99-78.68c14.61-15.78,9.05-39.35-9.5-50.22L294.75,292.5C276.2,281.63,252.35,287.85,241.48,306.39z"></path>
</svg></svg> <!----></g></g> <g transform="translate(67,6.299350738525391)"><g data-gra="path-name" fill-rule="" class="tp-name iconsvg-namesvg" transform="translate(0,0)"><g transform="scale(1)"><g><path d="M7.47 0L0.94 0 6.61-13.81 0.94-13.81 0.94-18.27 7.33-18.27 7.33-22.5 0.94-22.5 0.94-26.95 2.79-26.95 1.4-32.4 7.33-32.4 8.78-26.95 12.42-26.95 13.81-32.4 19.8-32.4 18.36-26.95 20.25-26.95 20.25-22.5 13.86-22.5 13.86-18.27 20.25-18.27 20.25-13.81 13.14-13.81 12.29-11.74 16.65-11.74 21.46 0 14.94 0 11.21-9.09 7.47 0ZM28.26-27.99L28.26 0 22.68 0 22.68-32.4 28.13-32.4 28.26-32.4 39.96-32.4 36.77-18.13 40.45-18.13 35.73-1.84 30.2-1.84 33.93-14.45 30.2-14.45 33.44-27.99 28.26-27.99ZM63.09-0.85L63.09-31.63 68.22-31.63 68.22-0.85 63.09-0.85ZM42.34-7.69L44.19-25.65 48.82-25.65 46.94-7.69 42.34-7.69ZM61.29-25.65L62.5-7.83 57.87-7.83 56.66-25.65 61.29-25.65ZM74.66-25.65L75.87-7.83 71.23-7.83 70.02-25.65 74.66-25.65ZM76.19-32.31L81.81-32.31 81.81-1.17 76.19-1.17 76.19-32.31ZM49.55-11.07L49.55-32.31 55.17-32.31 55.17-11.07 52.74-0.14 47.11-0.14 49.55-11.07ZM93.47-0.22L86.85-0.22 93.1-14.76 87.7-14.76 87.7-19.35 122.58-19.35 122.58-4.05Q122.58-2.38 121.41-1.21L121.41-1.21Q120.24-0.09 118.57-0.09L118.57-0.09 108.63-0.09 110.11-4.23 115.56-4.23Q116.01-4.23 116.28-4.54L116.28-4.54Q116.59-4.81 116.59-5.26L116.59-5.26 116.59-14.76 99.77-14.76 93.47-0.22ZM112.05-32.31L118.71-32.31 124.92-21.42 118.26-21.42 112.05-32.31ZM98.5-32.31L91.84-32.31 85.68-21.42 92.3-21.42 98.5-32.31ZM163.53-25.29L160.78-25.29 162.76-17.73 163.84-20.11 168.34-20.11 164.38-11.38 167.35 0 161.32 0 160.56-2.97 159.44-0.49 154.89-0.49 155.97-2.83 141.79-2.83 141.79-5.98 156.06-5.98 156.06-3.01 158.94-9.31 155.61-22.14 155.61-19.35 155.61-11.47Q155.61-10.04 154.6-9.02 153.59-8.01 152.14-8.01L152.14-8.01 142.65-8.01 142.65-8.5 142.65-19.35 142.65-22.95 147.78-22.95 150.48-22.95 155.38-22.95 154.8-25.29 141.79-25.29 141.79-29.16 153.81-29.16 152.95-32.45 158.94-32.45 159.79-29.16 162.63-29.16 161.87-32.27 166.68-32.27 168.34-25.29 166.37-25.29 163.53-25.29ZM150.93-12.73L150.93-19.35 147.38-19.35 147.38-11.65 149.85-11.65Q150.3-11.65 150.62-11.97 150.93-12.29 150.93-12.73L150.93-12.73ZM128.61-4.46L131.72-4.46 131.72-22.09 128.61-22.09 128.61-26.55 131.72-26.55 131.72-32.45 137.93-32.45 137.93-26.55 141.03-26.55 141.03-22.09 137.93-22.09 137.93-4.46 141.03-4.46 141.03 0 128.61 0 128.61-4.46Z" transform="translate(-0.940000057220459, 32.45000076293945)"></path></g> <!----> <!----> <!----> <!----> <!----> <!----> <!----></g></g> <g data-gra="path-slogan" fill-rule="" class="tp-slogan iconsvg-slogansvg" fill="#3a533d" transform="translate(5,38.45000076293945)"><rect x="0" height="1" y="3.9750003814697266" width="2.5649948120117188"></rect> <rect height="1" y="3.9750003814697266" width="2.5649948120117188" x="154.83499908447266"></rect> <g transform="translate(5.564994812011719,0)"><g transform="scale(1)"><path d="M1.73-1.03L7.03-1.03L7.03 0L0.28 0L0.28-0.94L5.53-7.59L0.66-7.59L0.66-8.58L7.03-8.58L7.03-7.59L1.73-1.03ZM11.33-5.06L15.83-5.06L15.83-8.58L17-8.58L17 0L15.83 0L15.83-3.98L11.33-3.98L11.33 0L10.16 0L10.16-8.58L11.33-8.58L11.33-5.06ZM22.09-1.03L27.25-1.03L27.25 0L20.92 0L20.92-8.58L27.16-8.58L27.16-7.59L22.09-7.59L22.09-4.92L26.78-4.92L26.78-3.89L22.09-3.89L22.09-1.03ZM32.16-8.58L36.47-1.64L36.47-8.58L37.59-8.58L37.59 0L36.28 0L31.92-6.94L31.88-6.94L31.88 0L30.75 0L30.75-8.58L32.16-8.58ZM47.80-3.61L45.17-3.61L45.17-4.59L48.92-4.59L48.92 0L48.17 0L47.89-1.08Q46.91 0.09 45.08 0.14L45.08 0.14Q43.34 0.14 42.41-0.75L42.41-0.75Q41-2.06 41.05-4.36L41.05-4.36Q41.38-8.63 45.13-8.81L45.13-8.81Q48.31-8.63 48.78-6L48.78-6L47.66-6Q47.19-7.78 45.08-7.83L45.08-7.83Q42.41-7.64 42.27-4.31L42.27-4.31Q42.27-0.75 45.13-0.75L45.13-0.75Q46.16-0.75 46.91-1.31L46.91-1.31Q47.84-2.06 47.80-3.61L47.80-3.61ZM53.55-1.03L58.84-1.03L58.84 0L52.09 0L52.09-0.94L57.34-7.59L52.47-7.59L52.47-8.58L58.84-8.58L58.84-7.59L53.55-1.03ZM63.14-5.06L67.64-5.06L67.64-8.58L68.81-8.58L68.81 0L67.64 0L67.64-3.98L63.14-3.98L63.14 0L61.97 0L61.97-8.58L63.14-8.58L63.14-5.06ZM79.39-4.27L79.39-4.27Q79.20-7.64 76.39-7.83L76.39-7.83Q73.53-7.69 73.39-4.27L73.39-4.27Q73.53-0.94 76.39-0.80L76.39-0.80Q79.20-0.98 79.39-4.27ZM80.56-4.27L80.56-4.27Q80.28 0 76.39 0.14L76.39 0.14Q72.45 0 72.17-4.27L72.17-4.27Q72.41-8.72 76.39-8.81L76.39-8.81Q80.28-8.67 80.56-4.27ZM89.59-3.19L89.59-8.58L90.77-8.58L90.77-3.05Q90.63 0.05 87.25 0.14L87.25 0.14Q84.11 0.05 83.97-2.86L83.97-2.86L83.97-8.58L85.14-8.58L85.14-3.19Q85.19-0.84 87.30-0.80L87.30-0.80Q89.59-0.84 89.59-3.19L89.59-3.19ZM105.41-3.89L101.19-3.89L101.19 0L100.02 0L100.02-8.58L105.97-8.58L105.97-7.59L101.19-7.59L101.19-4.92L105.41-4.92L105.41-3.89ZM110.45-1.03L115.61-1.03L115.61 0L109.28 0L109.28-8.58L115.52-8.58L115.52-7.59L110.45-7.59L110.45-4.92L115.14-4.92L115.14-3.89L110.45-3.89L110.45-1.03ZM120.52-8.58L124.83-1.64L124.83-8.58L125.95-8.58L125.95 0L124.64 0L120.28-6.94L120.23-6.94L120.23 0L119.11 0L119.11-8.58L120.52-8.58ZM136.67-8.58L133.44-3.47L133.44 0L132.27 0L132.27-3.47L129.03-8.58L130.39-8.58L132.83-4.45L135.31-8.58L136.67-8.58ZM145.38-3.19L145.38-8.58L146.55-8.58L146.55-3.05Q146.41 0.05 143.03 0.14L143.03 0.14Q139.89 0.05 139.75-2.86L139.75-2.86L139.75-8.58L140.92-8.58L140.92-3.19Q140.97-0.84 143.08-0.80L143.08-0.80Q145.38-0.84 145.38-3.19L145.38-3.19Z" transform="translate(-0.28125, 8.8125)"></path></g></g></g></g></g><defs v-gra="od"></defs></svg>